# File created by Blade
# Date/Time:  Tue Jan 27 19:38:14 2015
# Frame Rate: 120.000 fps
#------------------------------------------------------
:FULLY-SPECIFIED
:DEGREES
3607
root 3.741277 32.313563 2.308083 -1.829242 -30.686854 -1.894434
Spine 3.845734 -15.485092 -3.676010
Head 14.093584 30.394012 12.492154
LeftShoulder -14.507825 3.977343 31.428740
LeftArm -8.891806 36.969437 -108.048413
LeftForeArm 3.240985 -0.000000 21.464680
LeftHand 9.953959 -0.000000 -4.397270
LeftHandThumb1 -26.253704 0.000000 33.147579
RightShoulder -32.668843 -21.882082 -22.186735
RightArm -29.878992 60.100127 65.290339
RightForeArm 35.919395 -0.000000 99.784429
RightHand 24.440911 0.000000 -61.490881
RightHandThumb1 -24.326973 -0.000000 -32.862282
LeftUpLeg 12.558793 16.373298 -0.122340
LeftLeg -0.160917 -0.000000 0.000000
LeftFoot -22.872050 21.934745 -26.175858
LeftToeBase 15.562065 -0.000000 -0.000000
RightUpLeg -0.148416 12.833054 6.306898
RightLeg 10.964939 -0.000000 -0.000000
RightFoot -8.921545 -4.232961 9.790961
RightToeBase 9.431377 -0.000000 -0.000000
3608
root 3.743977 32.314077 2.304668 -1.827716 -30.669395 -1.883642
Spine 3.830984 -15.482568 -3.672428
Head 14.105936 30.373047 12.504148
LeftShoulder -14.499721 4.003668 31.420473
LeftArm -8.858742 37.011637 -108.035705
LeftForeArm 3.195197 -0.000000 21.489073
LeftHand 10.002934 -0.000000 -4.422730
LeftHandThumb1 -26.253704 0.000000 33.147579
RightShoulder -32.649998 -21.873743 -22.194703
RightArm -29.852445 60.083552 65.341962
RightForeArm 35.930287 0.000000 99.796422
RightHand 24.466373 -0.000000 -61.087378
RightHandThumb1 -24.326973 -0.000000 -32.862282
LeftUpLeg 12.539371 16.396819 -0.132910
LeftLeg -0.142390 -0.000000 0.000000
LeftFoot -22.765299 21.921476 -26.044751
LeftToeBase 15.285679 -0.000000 -0.000000
RightUpLeg -0.149906 12.861194 6.294917
RightLeg 10.941016 -0.000000 -0.000000
RightFoot -8.913797 -4.256989 9.820651
RightToeBase 9.406238 -0.000000 -0.000000
3609
root 3.746699 32.314338 2.300578 -1.818381 -30.651838 -1.879721
Spine 3.816453 -15.479858 -3.658175
Head 14.108554 30.366229 12.494688
LeftShoulder -14.487317 3.988366 31.417670
LeftArm -8.870420 36.956526 -108.048562
LeftForeArm 3.229403 -0.000000 21.504669
LeftHand 10.003236 -0.000000 -4.442597
LeftHandThumb1 -26.253704 0.000000 33.147579
RightShoulder -32.644455 -21.859017 -22.211773
RightArm -29.831642 60.071931 65.376887
RightForeArm 35.923899 -0.000000 99.805487
RightHand 24.478106 -0.000000 -61.142331
RightHandThumb1 -24.326973 -0.000000 -32.862282
LeftUpLeg 12.523055 16.369246 -0.144785
LeftLeg -0.165688 -0.000000 0.000000
LeftFoot -22.840158 21.906842 -26.188624
LeftToeBase 15.464946 -0.000000 -0.000000
RightUpLeg -0.172848 12.843709 6.289556
RightLeg 10.948352 -0.000000 -0.000000
RightFoot -8.912330 -4.282798 9.792623
RightToeBase 9.372847 -0.000000 -0.000000
3610
root 3.747339 32.314937 2.297510 -1.820840 -30.636213 -1.883841
Spine 3.814423 -15.467165 -3.647872
Head 14.118301 30.342370 12.511877
LeftShoulder -14.464553 3.943994 31.421655
LeftArm -8.952202 37.070164 -108.101701
LeftForeArm 2.972660 -0.000000 21.579954
LeftHand 10.067775 0.000000 -4.111368
LeftHandThumb1 -26.253704 0.000000 33.147579
RightShoulder -32.631803 -21.847592 -22.214554
RightArm -29.850504 60.066357 65.370282
RightForeArm 35.948064 -0.000000 99.820643
RightHand 24.490092 -0.000000 -61.137033
RightHandThumb1 -24.326973 -0.000000 -32.862282
LeftUpLeg 12.525723 16.391193 -0.126059
LeftLeg -0.186103 -0.000000 0.000000
LeftFoot -22.809350 21.912595 -26.129876
LeftToeBase 15.544363 -0.000000 -0.000000
RightUpLeg -0.162798 12.862865 6.293879
RightLeg 10.926348 -0.000000 -0.000000
RightFoot -8.897957 -4.287231 9.850667
RightToeBase 9.362179 -0.000000 -0.000000
3611
root 3.749415 32.315081 2.294956 -1.826984 -30.613665 -1.873107
Spine 3.810773 -15.461527 -3.646650
Head 14.118852 30.301070 12.516487
LeftShoulder -14.462282 3.939174 31.410390
LeftArm -8.938869 37.066921 -108.085642
LeftForeArm 3.032793 -0.000000 21.582384
LeftHand 10.049667 0.000000 -4.000201
LeftHandThumb1 -26.253704 0.000000 33.147579
RightShoulder -32.626637 -21.832173 -22.217298
RightArm -29.848878 60.050548 65.378208
RightForeArm 35.923294 0.000000 99.840577
RightHand 24.419323 -0.000000 -61.237459
RightHandThumb1 -24.326973 -0.000000 -32.862282
LeftUpLeg 12.512885 16.379616 -0.139290
LeftLeg -0.170353 -0.000000 0.000000
LeftFoot -22.815267 21.881781 -26.180808
LeftToeBase 15.414730 -0.000000 -0.000000
RightUpLeg -0.159703 12.872112 6.286510
RightLeg 10.915948 -0.000000 -0.000000
RightFoot -8.904758 -4.337067 9.838236
RightToeBase 9.249245 -0.000000 -0.000000
3612
root 3.751065 32.315558 2.292088 -1.824797 -30.591877 -1.872213
Spine 3.797177 -15.464970 -3.632223
Head 14.132618 30.294785 12.522782
LeftShoulder -14.445283 3.932901 31.399177
LeftArm -8.948559 37.041772 -108.093287
LeftForeArm 3.046672 -0.000000 21.600549
LeftHand 10.103670 0.000000 -4.006776
LeftHandThumb1 -26.253704 0.000000 33.147579
RightShoulder -32.611538 -21.831594 -22.230314
RightArm -29.819125 60.043321 65.421790
RightForeArm 35.933782 -0.000000 99.843797
RightHand 24.413503 -0.000000 -61.269135
RightHandThumb1 -24.326973 -0.000000 -32.862282
LeftUpLeg 12.501325 16.390492 -0.135832
LeftLeg -0.175472 -0.000000 0.000000
LeftFoot -22.774357 21.886775 -26.096722
LeftToeBase 15.503059 -0.000000 -0.000000
RightUpLeg -0.164360 12.848367 6.283273
RightLeg 10.907037 -0.000000 -0.000000
RightFoot -8.892417 -4.324581 9.844990
RightToeBase 9.317596 -0.000000 -0.000000
3613
root 3.751731 32.315540 2.288954 -1.824482 -30.567465 -1.869871
Spine 3.788868 -15.460308 -3.629292
Head 14.149672 30.277655 12.545198
LeftShoulder -14.438187 3.917292 31.406220
LeftArm -8.980096 37.077018 -108.115505
LeftForeArm 2.972336 -0.000000 21.646463
LeftHand 10.033580 -0.000000 -3.995904
LeftHandThumb1 -26.253704 0.000000 33.147579
RightShoulder -32.601015 -21.828315 -22.234829
RightArm -29.792737 60.003934 65.461417
RightForeArm 35.889100 0.000000 99.828635
RightHand 24.415557 0.000000 -61.027933
RightHandThumb1 -24.326973 -0.000000 -32.862282
LeftUpLeg 12.497338 16.384223 -0.137686
LeftLeg -0.184554 -0.000000 0.000000
LeftFoot -22.769890 21.855253 -26.144647
LeftToeBase 15.388085 -0.000000 -0.000000
RightUpLeg -0.164118 12.855945 6.284815
RightLeg 10.897480 -0.000000 -0.000000
RightFoot -8.894385 -4.367087 9.821937
RightToeBase 9.304164 -0.000000 -0.000000
3614
root 3.753779 32.315561 2.286057 -1.826122 -30.548710 -1.863353
Spine 3.781726 -15.459196 -3.625436
Head 14.156097 30.278026 12.560612
LeftShoulder -14.442778 3.931611 31.405797
LeftArm -8.968645 37.086393 -108.120175
LeftForeArm 2.982544 -0.000000 21.662939
LeftHand 10.046000 0.000000 -3.976377
LeftHandThumb1 -26.253704 0.000000 33.147579
RightShoulder -32.583634 -21.835994 -22.228868
RightArm -29.755764 60.011808 65.496633
RightForeArm 35.900586 -0.000000 99.815650
RightHand 24.458573 -0.000000 -61.110078
RightHandThumb1 -24.326973 -0.000000 -32.862282
LeftUpLeg 12.481040 16.399092 -0.139673
LeftLeg -0.169953 -0.000000 0.000000
LeftFoot -22.644983 21.881555 -25.894387
LeftToeBase 15.239950 -0.000000 -0.000000
RightUpLeg -0.173910 12.855729 6.276162
RightLeg 10.904139 -0.000000 -0.000000
RightFoot -8.910634 -4.368090 9.874167
RightToeBase 9.359894 -0.000000 -0.000000
3615
root 3.755183 32.315778 2.283265 -1.825544 -30.518424 -1.863215
Spine 3.772687 -15.444845 -3.612503
Head 14.162679 30.245641 12.570751
LeftShoulder -14.437646 3.937661 31.402193
LeftArm -8.946640 37.115805 -108.116480
LeftForeArm 2.980940 -0.000000 21.670099
LeftHand 10.022712 -0.000000 -3.991504
LeftHandThumb1 -26.253704 0.000000 33.147579
RightShoulder -32.582961 -21.846715 -22.231689
RightArm -29.748247 60.033650 65.511397
RightForeArm 35.904697 -0.000000 99.791192
RightHand 24.440459 -0.000000 -61.259509
RightHandThumb1 -24.326973 -0.000000 -32.862282
LeftUpLeg 12.469984 16.377392 -0.144485
LeftLeg -0.162895 -0.000000 0.000000
LeftFoot -22.649061 21.855672 -25.912975
LeftToeBase 15.280101 -0.000000 -0.000000
RightUpLeg -0.166142 12.859488 6.275262
RightLeg 10.877682 -0.000000 -0.000000
RightFoot -8.900213 -4.387843 9.881923
RightToeBase 9.409930 -0.000000 -0.000000
